<?xml version="1.0" encoding="UTF-8"?>
<svg xmlns="http://www.w3.org/2000/svg" xmlns:xlink="http://www.w3.org/1999/xlink" width="500pt" height="500pt" viewBox="0 0 500 500" version="1.1">
<g id="surface1">
<path style=" stroke:none;fill-rule:nonzero;fill:rgb(65.098039%,43.529412%,58.823529%);fill-opacity:1;" d="M 249.96875 5.203125 C 111.9375 5.203125 0 117.578125 0 256.203125 C 0 367.078125 71.625 461.140625 171 494.359375 C 183.5 496.671875 188.0625 488.921875 188.0625 482.265625 C 188.0625 476.296875 187.84375 460.515625 187.71875 439.578125 C 118.1875 454.734375 103.5 405.921875 103.5 405.921875 C 92.15625 376.921875 75.75 369.203125 75.75 369.203125 C 53.03125 353.640625 77.4375 353.953125 77.4375 353.953125 C 102.53125 355.734375 115.71875 379.828125 115.71875 379.828125 C 138.03125 418.171875 174.25 407.109375 188.5 400.671875 C 190.75 384.453125 197.21875 373.390625 204.375 367.109375 C 148.875 360.765625 90.5 339.234375 90.5 243.078125 C 90.5 215.671875 100.25 193.265625 116.25 175.703125 C 113.65625 169.359375 105.09375 143.828125 118.6875 109.296875 C 118.6875 109.296875 139.6875 102.546875 187.4375 135.015625 C 207.375 129.453125 228.75 126.671875 250.03125 126.578125 C 271.25 126.703125 292.65625 129.453125 312.625 135.046875 C 360.34375 102.578125 381.3125 109.328125 381.3125 109.328125 C 394.9375 143.890625 386.375 169.390625 383.8125 175.734375 C 399.84375 193.296875 409.5 215.703125 409.5 243.109375 C 409.5 339.515625 351.0625 360.734375 295.375 366.953125 C 304.34375 374.703125 312.34375 390.015625 312.34375 413.421875 C 312.34375 446.984375 312.03125 474.046875 312.03125 482.265625 C 312.03125 488.984375 316.53125 496.796875 329.21875 494.328125 C 428.4375 461.078125 500 367.046875 500 256.203125 C 500 117.578125 388.0625 5.203125 249.96875 5.203125 Z M 249.96875 5.203125 "/>
</g>
</svg>
