<?xml version="1.0" encoding="UTF-8"?>
<svg xmlns="http://www.w3.org/2000/svg" xmlns:xlink="http://www.w3.org/1999/xlink" width="500pt" height="500pt" viewBox="0 0 500 500" version="1.1">
<g id="surface1">
<path style=" stroke:none;fill-rule:nonzero;fill:rgb(65.098039%,43.529412%,58.823529%);fill-opacity:1;" d="M 324.511719 133.027344 L 175.488281 133.027344 C 151.703125 133.027344 132.351562 152.378906 132.351562 176.164062 L 132.351562 325.183594 C 132.351562 348.972656 151.703125 368.328125 175.488281 368.328125 L 324.511719 368.328125 C 348.296875 368.328125 367.65625 348.976562 367.65625 325.183594 L 367.65625 176.164062 C 367.65625 152.378906 348.304688 133.027344 324.511719 133.027344 Z M 250 328.136719 C 207.289062 328.136719 172.542969 293.386719 172.542969 250.675781 C 172.542969 207.964844 207.289062 173.214844 250 173.214844 C 292.714844 173.214844 327.464844 207.964844 327.464844 250.675781 C 327.464844 293.382812 292.710938 328.136719 250 328.136719 Z M 329.953125 189.230469 C 319.84375 189.230469 311.621094 181.007812 311.621094 170.902344 C 311.621094 160.800781 319.84375 152.578125 329.953125 152.578125 C 340.058594 152.578125 348.28125 160.800781 348.28125 170.902344 C 348.28125 181.007812 340.058594 189.230469 329.953125 189.230469 Z M 329.953125 189.230469 "/>
<path style=" stroke:none;fill-rule:nonzero;fill:rgb(65.098039%,43.529412%,58.823529%);fill-opacity:1;" d="M 250 205.949219 C 225.34375 205.949219 205.269531 226.011719 205.269531 250.667969 C 205.269531 275.332031 225.34375 295.40625 250 295.40625 C 274.664062 295.40625 294.726562 275.332031 294.726562 250.667969 C 294.726562 226.015625 274.660156 205.949219 250 205.949219 Z M 250 205.949219 "/>
<path style=" stroke:none;fill-rule:nonzero;fill:rgb(65.098039%,43.529412%,58.823529%);fill-opacity:1;" d="M 250 0 C 111.933594 0 0 111.933594 0 250 C 0 388.066406 111.933594 500 250 500 C 388.066406 500 500 388.066406 500 250 C 500 111.933594 388.066406 0 250 0 Z M 400.382812 325.183594 C 400.382812 367.027344 366.351562 401.054688 324.511719 401.054688 L 175.488281 401.054688 C 133.65625 401.054688 99.617188 367.027344 99.617188 325.183594 L 99.617188 176.164062 C 99.617188 134.328125 133.65625 100.292969 175.488281 100.292969 L 324.511719 100.292969 C 366.351562 100.292969 400.382812 134.328125 400.382812 176.164062 Z M 400.382812 325.183594 "/>
</g>
</svg>
