<?xml version="1.0" encoding="UTF-8"?>
<svg xmlns="http://www.w3.org/2000/svg" xmlns:xlink="http://www.w3.org/1999/xlink" width="500pt" height="500pt" viewBox="0 0 500 500" version="1.1">
<g id="surface1">
<path style=" stroke:none;fill-rule:nonzero;fill:rgb(65.098039%,43.529412%,58.823529%);fill-opacity:1;" d="M 500 249.996094 C 500 388.066406 388.070312 499.996094 250.003906 499.996094 C 111.933594 499.996094 0.00390625 388.066406 0.00390625 249.996094 C 0.00390625 111.929688 111.933594 0 250.003906 0 C 388.070312 0 500 111.929688 500 249.996094 Z M 500 249.996094 "/>
<path style=" stroke:none;fill-rule:nonzero;fill:rgb(94.509804%,94.901961%,94.901961%);fill-opacity:1;" d="M 403.132812 179.667969 C 392.421875 184.417969 380.898438 187.628906 368.8125 189.066406 C 381.152344 181.671875 390.621094 169.972656 395.089844 156.011719 C 383.542969 162.859375 370.75 167.828125 357.144531 170.507812 C 346.242188 158.898438 330.714844 151.644531 313.515625 151.644531 C 280.519531 151.644531 253.757812 178.40625 253.757812 211.402344 C 253.757812 216.085938 254.289062 220.644531 255.3125 225.019531 C 205.652344 222.527344 161.617188 198.738281 132.140625 162.574219 C 127 171.398438 124.050781 181.671875 124.050781 192.621094 C 124.050781 213.347656 134.605469 231.644531 150.632812 242.359375 C 140.839844 242.050781 131.621094 239.363281 123.570312 234.878906 C 123.5625 235.132812 123.5625 235.386719 123.5625 235.632812 C 123.5625 264.589844 144.171875 288.738281 171.5 294.222656 C 166.492188 295.597656 161.203125 296.324219 155.761719 296.324219 C 151.902344 296.324219 148.164062 295.953125 144.519531 295.257812 C 152.121094 318.992188 174.183594 336.269531 200.339844 336.757812 C 179.882812 352.785156 154.121094 362.335938 126.117188 362.335938 C 121.304688 362.335938 116.535156 362.054688 111.871094 361.5 C 138.300781 378.460938 169.71875 388.347656 203.464844 388.347656 C 313.378906 388.347656 373.484375 297.292969 373.484375 218.320312 C 373.484375 215.730469 373.429688 213.152344 373.3125 210.59375 C 384.996094 202.171875 395.125 191.648438 403.132812 179.667969 Z M 403.132812 179.667969 "/>
</g>
</svg>
